<?xml version="1.0"?>
<svg xmlns="http://www.w3.org/2000/svg" id="Capa_1" enable-background="new 0 0 512.127 512.127" height="512px" viewBox="0 0 512.127 512.127" width="512px" class="hovered-paths"><g><g><g><g><g><g><g><g><g><path d="m127.929 477.753c-76.479-44.274-127.929-126.984-127.929-221.711 0-141.385 114.615-256 256-256s256 114.615 256 256-114.615 256-256 256c-6.461 0-12.866-.239-19.206-.71z" fill="#7584f2" data-original="#7584F2" class="" style="fill:#0B8A93" data-old_color="#7584f2"/></g></g></g></g></g></g></g><path d="m512.127 256.085c0-9.455-.513-18.79-1.512-27.979l-115.866-115.866-39.617 74.039-62.603-62.603-75.125 129.983-16.692-16.692-3.515 50.046-36.928-36.928-6.981 45.967-27.104-27.104-9.655 150.038 79.901 79.901 40.49 12.489c6.341.47 12.745.71 19.206.71 141.386-.001 256.001-114.617 256.001-256.001z" fill="#4855b7" data-original="#4855B7" class="" style="fill:#08646A" data-old_color="#4855b7"/><g><g><path d="m182.18 158.61c0-33.497 27.155-60.652 60.653-60.652 25.578 0 47.458 15.811 56.374 38.211 8.916-22.4 30.796-38.211 56.375-38.211 33.497 0 60.653 27.155 60.653 60.652 0 82.967-117.027 138.74-117.027 138.74s-117.028-59.8-117.028-138.74z" fill="#ff8fb8" data-original="#FF8FB8" class="" style="fill:#FD5426" data-old_color="#ff8fb8"/></g></g><g><g><path d="m355.58 97.957c-25.578 0-47.459 15.811-56.375 38.211-.001-.001 0-.003 0-.004v161.184.001s117.027-55.772 117.027-138.74c.001-33.497-27.154-60.652-60.652-60.652z" fill="#ff5f96" data-original="#FF5F96" class="hovered-path active-path" style="fill:#EF4424" data-old_color="#ff5f96"/></g></g><g><path d="m245.129 274.978c-9.938-.33-18.072 7.625-18.072 17.462 0 0-.022 63.424-.035 63.438l-10.856-5.624c.012-.014.031-58.423.031-58.423 0-.421.011-.839.033-1.255.557-10.567 9.253-22.515 20.556-24.244.029-.005 6.84 0 6.84 0v-96.912c0-9.19-7.451-16.641-16.641-16.641-9.191 0-16.641 7.451-16.641 16.641v103.322h-6.311v-25.469c0-9.023-7.017-16.709-16.034-17.029-9.467-.337-17.248 7.238-17.248 16.63v33.453h-5.235v-18.481c0-8.652-7.014-15.666-15.666-15.666-8.652 0-15.666 7.014-15.666 15.666v27.963h-5.235v-12.491c0-7.452-6.098-13.78-13.549-13.641-7.225.135-13.041 6.035-13.041 13.292v11.255 66.735 33.861h.207c1.474 16.682 11.214 30.985 25.096 38.795.012.006.019.019.019.032v49.961c32.512 18.87 69.558 30.789 109.105 33.723 0-38.444 0-81.421 0-81.421 0-.015.009-.028.021-.034 14.829-6.627 25.193-21.507 25.193-38.771v-98.255c0-9.485-7.39-17.557-16.871-17.872z" fill="#ffdecf" data-original="#FFDECF"/></g><g><path d="m245.129 274.978c-9.938-.33-18.072 7.625-18.072 17.462 0 0-.022 63.424-.035 63.438l-10.856-5.624c.012-.014.031-58.423.031-58.423 0-.421.011-.839.033-1.255.557-10.567 9.253-22.515 20.556-24.244.029-.005 6.84 0 6.84 0v-96.912c0-9.19-7.451-16.641-16.641-16.641-9.191 0-16.641 7.451-16.641 16.641v103.322h-6.311v-25.469c0-9.023-7.017-16.709-16.034-17.029-9.467-.337-17.248 7.238-17.248 16.63v33.453h-2.93v216.103c21.759 7.984 44.895 13.116 68.965 14.902 0-38.444 0-81.421 0-81.421 0-.015.009-.028.021-.034 14.829-6.628 25.193-21.508 25.193-38.772v-98.255c0-9.485-7.39-17.557-16.871-17.872z" fill="#ffbeaa" data-original="#FFBEAA" class="" style="fill:#FFBEAA"/></g></g></g> </svg>
