<?xml version="1.0"?>
<svg xmlns="http://www.w3.org/2000/svg" id="Capa_1" enable-background="new 0 0 491.966 491.966" height="512px" viewBox="0 0 491.966 491.966" width="512px" class=""><g><path d="m289.562 147.786c-1.913-39.419-33.872-71.313-73.293-73.188-1.667-.079-3.324-.105-4.967-.079-20.299.321-40.322-4.063-58.707-12.675-13.789-6.459-29.178-10.069-45.411-10.069-59.276 0-107.611 48.702-107.181 107.976v247.309c0 36.722 29.769 66.492 66.492 66.492h156.669c36.722 0 66.492-29.769 66.492-66.492-.001 0 .103-255.213-.094-259.274z" fill="#d77f4a" data-original="#D77F4A"/><path d="m289.562 147.786c-1.913-39.419-33.872-71.313-73.293-73.188-1.667-.079-3.324-.105-4.967-.079-20.299.321-40.322-4.063-58.707-12.675-13.789-6.459-29.178-10.069-45.411-10.069-5.067 0-10.052.364-14.935 1.052 10.704 1.506 20.902 4.592 30.347 9.017 18.384 8.612 38.408 12.996 58.707 12.675 1.644-.026 3.3 0 4.967.079 39.421 1.875 71.38 33.769 73.293 73.188.197 4.061.093 259.275.093 259.275 0 36.722-29.769 66.492-66.492 66.492h30c36.722 0 66.492-29.769 66.492-66.492-.001-.001.103-255.214-.094-259.275z" fill="#c86d36" data-original="#C86D36" class=""/><path d="m240.587 491.437h-188.299c-8.73 0-15.808-7.077-15.808-15.808v-13.554c0-60.728 49.229-109.957 109.957-109.957 60.728 0 109.957 49.229 109.957 109.957v13.554c.001 8.73-7.077 15.808-15.807 15.808z" fill="#0ed290" data-original="#0ED290" class="" style="fill:#0B8A93" data-old_color="#0ed290"/><path d="m146.438 352.118c-5.089 0-10.095.354-15 1.023 53.63 7.317 94.957 53.296 94.957 108.934v13.554c0 8.73-7.077 15.808-15.808 15.808h30c8.73 0 15.808-7.077 15.808-15.808v-13.554c0-60.728-49.23-109.957-109.957-109.957z" fill="#00c285" data-original="#00C285" class="active-path" style="fill:#095C61" data-old_color="#00c285"/><path d="m401.966.529c-49.706 0-90 40.294-90 90 0 18.247 5.436 35.222 14.769 49.405l-14.431 29.336c-1.913 7.138 4.619 13.67 11.757 11.757l29.59-14.556c13.959 8.9 30.535 14.058 48.316 14.058 49.706 0 90-40.294 90-90-.001-49.705-40.296-90-90.001-90z" fill="#fd5426" data-original="#FD5426" class=""/><path d="m401.966.529c-5.111 0-10.121.433-15 1.251 42.565 7.142 75 44.154 75 88.749 0 44.586-32.424 81.593-74.977 88.745 4.872.817 9.873 1.255 14.977 1.255 49.706 0 90-40.294 90-90s-40.295-90-90-90z" fill="#ef4424" data-original="#EF4424" class=""/><path d="m395.228 137.344v-6.008c-11.81-1.451-20.408-8.391-20.408-24.138v-27.454c0-17.922 11.085-24.449 25.381-24.449 14.297 0 25.485 6.527 25.485 24.449v27.453c0 15.747-8.702 22.687-20.512 24.138v6.008c0 3.315-2.486 4.973-4.973 4.973-2.487.001-4.973-1.657-4.973-4.972zm14.297-57.6c0-7.045-3.522-10.36-9.324-10.36-5.801 0-9.22 3.315-9.22 10.36v27.453c0 4.765 1.45 7.77 4.247 9.324v-4.558c0-3.419 2.487-4.869 4.973-4.869 2.487 0 4.973 1.45 4.973 4.869v4.558c2.694-1.554 4.351-4.558 4.351-9.324z" fill="#fff" data-original="#FFF" class=""/><path d="m104.291 491.437c.009-.152.023-.303.023-.457v-24.197c0-4.142-3.358-7.5-7.5-7.5s-7.5 3.358-7.5 7.5v24.197c0 .154.014.305.023.457z" fill="#00c285" data-original="#00C285" class="active-path" style="fill:#095C61" data-old_color="#00c285"/><path d="m212.402 491.437c.009-.152.023-.303.023-.457v-24.197c0-4.142-3.358-7.5-7.5-7.5s-7.5 3.358-7.5 7.5v24.197c0 .154.014.305.023.457z" fill="#00c285" data-original="#00C285" class="active-path" style="fill:#095C61" data-old_color="#00c285"/><g fill="#fed2a4"><ellipse cx="239.388" cy="232.351" rx="30.312" ry="30.312" transform="matrix(.927 -.376 .376 .927 -69.758 106.962)" data-original="#FED2A4"/><ellipse cx="50.794" cy="232.351" rx="30.312" ry="30.312" transform="matrix(.955 -.296 .296 .955 -66.535 25.467)" data-original="#FED2A4"/><path d="m239.867 176.431c-20.066-7.869-37.932-20.534-52.016-36.92-.648-.754-1.727-.971-2.616-.525l-6.034 3.022c-33.982 17.02-70.599 28.168-108.3 32.971l-18.97 2.417c-3.741.477-6.552 3.647-6.578 7.418l-.408 59.716c0 48.29 34.343 88.557 79.937 97.714v19.294c0 11.88 9.631 21.511 21.511 21.511s21.511-9.631 21.511-21.511v-20.074c43.811-10.488 76.379-49.907 76.379-96.933l.41-61.026c.021-3.135-1.909-5.93-4.826-7.074z" data-original="#FED2A4"/></g><path d="m239.867 176.431c-20.066-7.869-37.932-20.534-52.016-36.92-.648-.754-1.727-.971-2.616-.525l-6.034 3.022c-4.336 2.172-8.717 4.245-13.136 6.225 12.571 12.194 27.455 21.788 43.801 28.198 2.917 1.144 4.847 3.939 4.826 7.072l-.41 61.026c0 49.947-36.74 91.311-84.669 98.545 4.893.738 9.901 1.123 15 1.123 55.046 0 99.669-44.623 99.669-99.669l.41-61.026c.022-3.132-1.908-5.927-4.825-7.071z" fill="#ffbd86" data-original="#FFBD86"/><path d="m97.514 265.11c-4.142 0-7.5-3.358-7.5-7.5v-7.139c0-4.142 3.358-7.5 7.5-7.5s7.5 3.358 7.5 7.5v7.139c0 4.142-3.357 7.5-7.5 7.5z" fill="#384949" data-original="#384949" class="" style="fill:#384949"/><path d="m187.612 265.11c-4.142 0-7.5-3.358-7.5-7.5v-7.139c0-4.142 3.358-7.5 7.5-7.5s7.5 3.358 7.5 7.5v7.139c0 4.142-3.358 7.5-7.5 7.5z" fill="#384949" data-original="#384949" class="" style="fill:#384949"/><path d="m144.833 295.649c-7.365 0-14.169-3.999-17.757-10.437-2.017-3.618-.718-8.186 2.9-10.202 3.619-2.016 8.187-.718 10.202 2.9.941 1.689 2.725 2.739 4.654 2.739 1.935 0 3.721-1.054 4.661-2.751 2.007-3.623 6.572-4.933 10.195-2.925s4.933 6.572 2.925 10.195c-3.58 6.465-10.394 10.481-17.78 10.481z" fill="#ffbd86" data-original="#FFBD86"/><path d="m80.101 234.643c-1.663 0-3.337-.551-4.728-1.682-3.213-2.614-3.7-7.337-1.086-10.551 6.247-7.681 15.862-11.745 25.711-10.868 4.126.367 7.173 4.009 6.807 8.134-.367 4.126-4.009 7.177-8.135 6.806-4.887-.433-9.647 1.582-12.746 5.392-1.482 1.824-3.643 2.769-5.823 2.769z" fill="#d77f4a" data-original="#D77F4A"/><path d="m209.815 234.643c-2.179 0-4.34-.945-5.823-2.768-3.1-3.81-7.868-5.826-12.747-5.392-4.117.366-7.768-2.68-8.135-6.806s2.681-7.768 6.807-8.134c9.845-.878 19.464 3.187 25.712 10.868 2.614 3.214 2.127 7.937-1.086 10.551-1.39 1.13-3.065 1.681-4.728 1.681z" fill="#d77f4a" data-original="#D77F4A"/></g> </svg>
